<svg width="24" height="24" viewBox="0 0 24 24" fill="none" xmlns="http://www.w3.org/2000/svg">
<path d="M12.7371 8.4755L18.3871 14.1355C18.4808 14.2285 18.5552 14.3391 18.606 14.4609C18.6567 14.5828 18.6829 14.7135 18.6829 14.8455C18.6829 14.9775 18.6567 15.1082 18.606 15.2301C18.5552 15.352 18.4808 15.4626 18.3871 15.5555C18.1997 15.7418 17.9462 15.8463 17.6821 15.8463C17.4179 15.8463 17.1644 15.7418 16.9771 15.5555L11.9771 10.6055L7.02706 15.5555C6.8397 15.7418 6.58625 15.8463 6.32206 15.8463C6.05788 15.8463 5.80442 15.7418 5.61706 15.5555C5.52257 15.4629 5.4474 15.3525 5.39591 15.2306C5.34441 15.1087 5.31761 14.9778 5.31706 14.8455C5.31761 14.7132 5.34441 14.5823 5.39591 14.4605C5.4474 14.3386 5.52257 14.2281 5.61706 14.1355L11.2671 8.4755C11.3607 8.374 11.4744 8.293 11.6009 8.2376C11.7274 8.1822 11.864 8.1536 12.0021 8.1536C12.1402 8.1536 12.2768 8.1822 12.4033 8.2376C12.5298 8.293 12.6434 8.374 12.7371 8.4755Z" fill="#8F8F8F"/>
</svg>